<svg width="48" height="48" viewBox="0 0 48 48" fill="none" xmlns="http://www.w3.org/2000/svg">
<path d="M24 18V24L27 27M33.02 34.7L32.32 42.36C32.2299 43.3573 31.769 44.2845 31.0284 44.9585C30.2878 45.6324 29.3213 46.0041 28.32 46H19.66C18.6587 46.0041 17.6922 45.6324 16.9516 44.9585C16.211 44.2845 15.7501 43.3573 15.66 42.36L14.96 34.7M14.98 13.3L15.68 5.64C15.7698 4.64616 16.2279 3.72177 16.9642 3.04831C17.7006 2.37484 18.6621 2.00094 19.66 2H28.36C29.3613 1.99594 30.3278 2.3676 31.0684 3.04155C31.809 3.7155 32.2699 4.64271 32.36 5.64L33.06 13.3M38 24C38 31.732 31.732 38 24 38C16.268 38 10 31.732 10 24C10 16.268 16.268 10 24 10C31.732 10 38 16.268 38 24Z" stroke="black" stroke-width="4" stroke-linecap="round" stroke-linejoin="round"/>
</svg>
