<svg width="48" height="49" fill="none" xmlns="http://www.w3.org/2000/svg"><g clip-path="url(#a)"><path d="M24 18.856v6l3 3m6.02 7.7-.7 7.66a4 4 0 0 1-4 3.64h-8.66a4 4 0 0 1-4-3.64l-.7-7.66m.02-21.4.7-7.66a4 4 0 0 1 3.98-3.64h8.7a4 4 0 0 1 4 3.64l.7 7.66m4.94 10.7c0 7.732-6.268 14-14 14s-14-6.268-14-14 6.268-14 14-14 14 6.268 14 14Z" stroke="#41D335" stroke-width="4" stroke-linecap="round" stroke-linejoin="round"/></g><defs><clipPath id="a"><path fill="#fff" transform="translate(0 .856)" d="M0 0h48v48H0z"/></clipPath></defs></svg>