<svg width="22" height="22" viewBox="0 0 22 22" fill="none" xmlns="http://www.w3.org/2000/svg">
<circle cx="11" cy="11" r="11" fill="#1F1F3C" fill-opacity="0.4"/>
<path fill-rule="evenodd" clip-rule="evenodd" d="M14.9466 7.05335C14.5943 6.70097 14.0229 6.70097 13.6705 7.05335L11 9.72389L8.32946 7.05335L8.26093 6.99141C7.90651 6.70234 7.38372 6.72299 7.05335 7.05335C6.70097 7.40574 6.70097 7.97707 7.05335 8.32946L9.72389 11L7.05335 13.6705L6.99141 13.7391C6.70234 14.0935 6.72299 14.6163 7.05335 14.9466C7.40574 15.299 7.97707 15.299 8.32946 14.9466L11 12.2761L13.6705 14.9466L13.7391 15.0086C14.0935 15.2977 14.6163 15.277 14.9466 14.9466C15.299 14.5943 15.299 14.0229 14.9466 13.6705L12.2761 11L14.9466 8.32946L15.0086 8.26093C15.2977 7.90651 15.277 7.38372 14.9466 7.05335Z" fill="white"/>
</svg>
