<svg width="71" height="71" viewBox="0 0 71 71" fill="none" xmlns="http://www.w3.org/2000/svg">
<circle cx="35.5404" cy="35.203" r="35.16" fill="#D9D9D9"/>
<path d="M26.4819 28.0625H29.4312V37.2422C29.4312 40.3379 27.0776 42.4082 23.5718 42.3984C20.0562 42.4082 17.7319 40.3379 17.7319 37.2422V28.0625H20.6616V37.0078C20.6714 38.6387 21.8237 39.8105 23.5718 39.8203C25.3394 39.8105 26.4917 38.6387 26.4819 37.0078V28.0625ZM31.834 42.2031V28.0625H37.3808C40.5937 28.0625 42.4394 29.8691 42.4394 32.6719C42.4394 34.6055 41.5508 36.0117 39.9394 36.7051L42.9472 42.2031H39.7051L37 37.1836H34.7637V42.2031H31.834ZM34.7637 34.8008H36.834C38.5722 34.8008 39.4219 34.0879 39.4121 32.6719C39.4219 31.2461 38.5722 30.4746 36.834 30.4648H34.7637V34.8008ZM44.4907 42.2031V28.0625H47.4204V39.7812H53.5141V42.2031H44.4907Z" fill="#3A3C40"/>
</svg>
