<svg width="16" height="22" viewBox="0 0 16 22" fill="none" xmlns="http://www.w3.org/2000/svg">
<g id="Group 1437256041">
<path id="Rectangle 39590524" d="M13.7243 4.80438V3.5V2.68141C13.7243 1.75279 12.9715 1 12.0429 1H2.76246C1.83385 1 1.08105 1.75279 1.08105 2.68141V19.3186C1.08105 20.2472 1.83385 21 2.76246 21H12.0429C12.9715 21 13.7243 20.2472 13.7243 19.3186V18.5V16.9251" stroke="#3A3C40" stroke-width="1.5" stroke-linecap="round"/>
<path id="Arrow 8" d="M6.85498 10.2471C6.44077 10.2471 6.10498 10.5829 6.10498 10.9971C6.10498 11.4113 6.44077 11.7471 6.85498 11.7471L6.85498 10.2471ZM6.85498 11.7471L14.9771 11.7471L14.9771 10.2471L6.85498 10.2471L6.85498 11.7471Z" fill="#3A3C40"/>
<path id="Vector 5" d="M12.5483 8.40723L14.7366 10.6471C14.9281 10.8431 14.9281 11.1561 14.7366 11.3521L12.5483 13.592" stroke="#3A3C40" stroke-width="1.5" stroke-linecap="round"/>
</g>
</svg>
