<svg width="18" height="20" viewBox="0 0 18 20" fill="none" xmlns="http://www.w3.org/2000/svg">
<path d="M15 20C14.1667 20 13.4583 19.7083 12.875 19.125C12.2917 18.5417 12 17.8333 12 17C12 16.8833 12.0083 16.7625 12.025 16.6375C12.0417 16.5125 12.0667 16.4 12.1 16.3L5.05 12.2C4.76667 12.45 4.45 12.6458 4.1 12.7875C3.75 12.9292 3.38333 13 3 13C2.16667 13 1.45833 12.7083 0.875 12.125C0.291667 11.5417 0 10.8333 0 10C0 9.16667 0.291667 8.45833 0.875 7.875C1.45833 7.29167 2.16667 7 3 7C3.38333 7 3.75 7.07083 4.1 7.2125C4.45 7.35417 4.76667 7.55 5.05 7.8L12.1 3.7C12.0667 3.6 12.0417 3.4875 12.025 3.3625C12.0083 3.2375 12 3.11667 12 3C12 2.16667 12.2917 1.45833 12.875 0.875C13.4583 0.291667 14.1667 0 15 0C15.8333 0 16.5417 0.291667 17.125 0.875C17.7083 1.45833 18 2.16667 18 3C18 3.83333 17.7083 4.54167 17.125 5.125C16.5417 5.70833 15.8333 6 15 6C14.6167 6 14.25 5.92917 13.9 5.7875C13.55 5.64583 13.2333 5.45 12.95 5.2L5.9 9.3C5.93333 9.4 5.95833 9.5125 5.975 9.6375C5.99167 9.7625 6 9.88333 6 10C6 10.1167 5.99167 10.2375 5.975 10.3625C5.95833 10.4875 5.93333 10.6 5.9 10.7L12.95 14.8C13.2333 14.55 13.55 14.3542 13.9 14.2125C14.25 14.0708 14.6167 14 15 14C15.8333 14 16.5417 14.2917 17.125 14.875C17.7083 15.4583 18 16.1667 18 17C18 17.8333 17.7083 18.5417 17.125 19.125C16.5417 19.7083 15.8333 20 15 20ZM15 4C15.2833 4 15.5208 3.90417 15.7125 3.7125C15.9042 3.52083 16 3.28333 16 3C16 2.71667 15.9042 2.47917 15.7125 2.2875C15.5208 2.09583 15.2833 2 15 2C14.7167 2 14.4792 2.09583 14.2875 2.2875C14.0958 2.47917 14 2.71667 14 3C14 3.28333 14.0958 3.52083 14.2875 3.7125C14.4792 3.90417 14.7167 4 15 4ZM3 11C3.28333 11 3.52083 10.9042 3.7125 10.7125C3.90417 10.5208 4 10.2833 4 10C4 9.71667 3.90417 9.47917 3.7125 9.2875C3.52083 9.09583 3.28333 9 3 9C2.71667 9 2.47917 9.09583 2.2875 9.2875C2.09583 9.47917 2 9.71667 2 10C2 10.2833 2.09583 10.5208 2.2875 10.7125C2.47917 10.9042 2.71667 11 3 11ZM15 18C15.2833 18 15.5208 17.9042 15.7125 17.7125C15.9042 17.5208 16 17.2833 16 17C16 16.7167 15.9042 16.4792 15.7125 16.2875C15.5208 16.0958 15.2833 16 15 16C14.7167 16 14.4792 16.0958 14.2875 16.2875C14.0958 16.4792 14 16.7167 14 17C14 17.2833 14.0958 17.5208 14.2875 17.7125C14.4792 17.9042 14.7167 18 15 18Z" fill="#1D1B20"/>
</svg>
