<svg width="212" height="28" fill="none" xmlns="http://www.w3.org/2000/svg"><g fill="#17B609"><path d="M189.278.36h20.674c.604.122.967.484 1.088 1.089v.58c0 1.645-1.016 2.902-3.047 3.772l-1.088.145h-4.498v20.675c-.169.822-.531 1.233-1.088 1.233h-3.409c-.556 0-.919-.411-1.088-1.233V5.946h-4.498c-1.91 0-3.264-1.088-4.062-3.264l-.073-.653v-.58c.121-.605.484-.967 1.089-1.088ZM162.927.36h20.675c.604.122.967.484 1.088 1.089v.58c0 1.645-1.016 2.902-3.047 3.772l-1.088.145h-13.13v5.369h7.399c.822.145 1.233.556 1.233 1.233v.29c0 1.777-1.015 3.083-3.046 3.917l-1.016.145h-4.57v5.368h16.104c.774.218 1.161.58 1.161 1.088v.508c0 1.838-1.088 3.143-3.265 3.917l-.725.073h-17.773c-.604-.121-.967-.484-1.088-1.088V1.449c.121-.605.484-.967 1.088-1.088ZM136.569.36h20.674c.605.122.968.484 1.089 1.089v.58c0 1.645-1.016 2.902-3.047 3.772l-1.088.145h-13.13v5.369h7.399c.822.145 1.233.556 1.233 1.233v.29c0 1.777-1.015 3.083-3.046 3.917l-1.016.145h-4.57v5.368h16.104c.774.218 1.161.58 1.161 1.088v.508c0 1.838-1.089 3.143-3.265 3.917l-.725.073h-17.773c-.604-.121-.967-.484-1.088-1.088V1.449c.121-.605.484-.967 1.088-1.088Z"/><path d="M157.094 11.318h-11.908v5.586h9.079l1.016-.145c2.031-.834 3.046-2.14 3.046-3.917v-.29c0-.678-.411-1.089-1.233-1.234ZM183.453 11.318h-11.908v5.586h9.079l1.016-.145c2.031-.834 3.046-2.14 3.046-3.917v-.29c0-.678-.411-1.089-1.233-1.234ZM99.938.36h1.305c1.753 0 3.059 1.161 3.917 3.483l5.659 14.726c.181-.218 1.124-2.733 2.829-7.545l3.699-10.01c.29-.436.653-.653 1.088-.653h1.089c2.115 0 3.615 1.596 4.497 4.788 5.453 13.903 8.185 20.988 8.197 21.254v.363c-.121.604-.483.967-1.088 1.088h-3.482c-.762 0-1.39-.967-1.886-2.902-.193-.314-2.104-5.271-5.731-14.87-.145.084-1.837 4.678-5.078 13.782-.87 2.515-1.426 3.772-1.668 3.772a1.012 1.012 0 0 1-.653.218h-3.482c-.653 0-1.257-.992-1.813-2.974l-5.731-14.871h-.073c-1.257 3.663-3.36 9.442-6.31 17.337-.351.339-.641.508-.871.508h-3.555c-.604-.121-.967-.484-1.088-1.088v-.363c.242-.883 3.337-9.37 9.285-25.462.339-.387.653-.58.944-.58ZM53.997.871c2.128 0 3.603 1.548 4.425 4.643.194.338 1.838 4.594 4.933 12.767.181-.17 1.777-4.038 4.788-11.607l2.176-5.15a2.555 2.555 0 0 1 1.74-.653h.726c1.62 0 2.878 1.016 3.772 3.047L82.07 18.28h.073c4.292-10.772 6.59-16.43 6.891-16.975.315-.29.58-.435.798-.435h3.627c.605.12.968.484 1.089 1.088v.435L84.464 27.421c-.386.29-.677.435-.87.435H80.62c-.774 0-1.33-.701-1.669-2.104l-6.02-15.668h-.146C68.24 21.448 65.894 27.227 65.75 27.42c-.29.29-.605.435-.943.435h-2.902c-.774 0-1.402-.919-1.886-2.756L51.386 2.612v-.363c.157-.919.786-1.378 1.886-1.378h.725ZM38.2.36h1.088c3.312 0 6.287 1.645 8.922 4.934 1.306 2.067 1.959 4.098 1.959 6.093v5.44c0 2.697-1.064 5.211-3.192 7.545-2.43 2.321-4.993 3.482-7.69 3.482H38.2c-3.217 0-6.142-1.572-8.778-4.715-1.402-2.128-2.104-4.232-2.104-6.311v-5.441c0-3.724 1.862-6.891 5.586-9.503C34.874.87 36.64.361 38.199.361Zm-5.296 11.607v4.28c0 2.793 1.378 4.703 4.135 5.731.508.194 1.112.29 1.813.29 2.298 0 4.063-1.209 5.296-3.627.29-.786.435-1.584.435-2.394v-4.28c0-2.792-1.378-4.703-4.135-5.73-.508-.194-1.112-.29-1.813-.29-2.297 0-4.063 1.208-5.296 3.627a6.862 6.862 0 0 0-.435 2.393ZM2.048 0h.58C4.212 0 5.47.991 6.401 2.974l.145 1.088V11.1h11.679V1.233C18.406.411 18.769 0 19.313 0h.508c1.789 0 3.095 1.064 3.917 3.192l.072.798v22.778c-.12.604-.483.967-1.088 1.088h-3.41c-.543 0-.906-.411-1.087-1.234v-9.865H6.545v9.865c-.18.823-.543 1.234-1.088 1.234H2.048c-.604-.121-.967-.484-1.088-1.088V1.088C1.08.484 1.444.121 2.048 0Z"/></g></svg>